<svg xmlns="http://www.w3.org/2000/svg" viewBox="0 0 320 80" fill="none">
  <path d="M36 5 C53 5 63 17 63 36 C63 55 53 67 36 67 C23 67 13 59 9.5 47" fill="none" stroke="#C41230" stroke-width="6" stroke-linecap="round"/>
  <path d="M11 21 C15 10 24 5 36 5" fill="none" stroke="#C41230" stroke-width="5" stroke-linecap="round"/>
  <path d="M36 13 C49 13 57 22 57 36 C57 50 49 59 36 59 C26 59 18 52 15 42" fill="none" stroke="#C41230" stroke-width="4.5" stroke-linecap="round"/>
  <path d="M16.5 27 C20 18 27 13 36 13" fill="none" stroke="#C41230" stroke-width="3.5" stroke-linecap="round"/>
  <path d="M36 21 C45 21 51 27 51 36 C51 45 44 51 36 51 C28 51 23 46 21 39" fill="none" stroke="#C41230" stroke-width="3.5" stroke-linecap="round"/>
  <circle cx="36" cy="36" r="13" fill="#1A3A8F"/>
  <polyline points="29,36 33.5,41 43,30" fill="none" stroke="white" stroke-width="3.5" stroke-linecap="round" stroke-linejoin="round"/>
  <text x="82" y="36" font-family="Inter,system-ui,sans-serif" font-size="28" font-weight="900" fill="#8B0000" letter-spacing="-0.5">SAVICOL</text>
  <text x="83" y="52" font-family="Inter,system-ui,sans-serif" font-size="9.5" font-weight="600" fill="#2D6B9E" letter-spacing="1.8">AUDITORIA Y CONTROL INTERNO</text>
  <rect x="82" y="58" width="228" height="16" rx="3" fill="#1A3A8F"/>
  <text x="196" y="69.5" text-anchor="middle" font-family="Inter,system-ui,sans-serif" font-size="7.5" font-weight="600" fill="white" letter-spacing="1.2">INTEGRIDAD - PRECISION - RESULTADOS</text>
</svg>
